<?xml version="1.0" encoding="UTF-8"?>
<svg id="Camada_2" data-name="Camada 2" xmlns="http://www.w3.org/2000/svg" xmlns:xlink="http://www.w3.org/1999/xlink" viewBox="0 0 1473.75 282.57">
  <defs>
    <style>
      .cls-1 {
        fill: url(#Gradiente_sem_nome_4-3);
      }

      .cls-2 {
        fill: url(#Gradiente_sem_nome_4);
      }

      .cls-3 {
        fill: url(#Gradiente_sem_nome_4-5);
      }

      .cls-4 {
        fill: url(#Gradiente_sem_nome_4-4);
      }

      .cls-5 {
        fill: url(#Gradiente_sem_nome_4-2);
      }
    </style>
    <linearGradient id="Gradiente_sem_nome_4" data-name="Gradiente sem nome 4" x1="-11.89" y1="132.18" x2="1573.64" y2="72.43" gradientUnits="userSpaceOnUse">
      <stop offset="0" stop-color="#013efd"/>
      <stop offset="1" stop-color="#3ba2ff"/>
    </linearGradient>
    <linearGradient id="Gradiente_sem_nome_4-2" data-name="Gradiente sem nome 4" x1="-9.51" y1="195.2" x2="1576.02" y2="135.46" xlink:href="#Gradiente_sem_nome_4"/>
    <linearGradient id="Gradiente_sem_nome_4-3" data-name="Gradiente sem nome 4" x1="-10.35" y1="173.02" x2="1575.18" y2="113.28" xlink:href="#Gradiente_sem_nome_4"/>
    <linearGradient id="Gradiente_sem_nome_4-4" data-name="Gradiente sem nome 4" x1="-9.99" y1="182.65" x2="1575.55" y2="122.91" xlink:href="#Gradiente_sem_nome_4"/>
    <linearGradient id="Gradiente_sem_nome_4-5" data-name="Gradiente sem nome 4" x1="-9.07" y1="206.95" x2="1576.46" y2="147.21" xlink:href="#Gradiente_sem_nome_4"/>
  </defs>
  <g id="Layer_1" data-name="Layer 1">
    <g>
      <path class="cls-2" d="M1465.61,7.68c-2.61-2.49-5.68-4.42-9.15-5.73-3.4-1.29-7.06-1.94-10.9-1.94h-125.91c-4.18,0-8.37.77-12.45,2.3-5.69,2.13-10.91,5.63-15.1,10.13-4.4,4.74-7.44,10.37-8.79,16.3l-9.31,42.19-13.6,61.09h0c-.45,2-.68,4.04-.68,6.04-.03,6.65,2.6,13.03,7.22,17.51,2.31,2.25,5.15,4.07,8.23,5.26,3.05,1.18,6.34,1.78,9.77,1.78h72.19c3.71,0,7.42-.7,11.03-2.07,4.98-1.91,9.54-5.03,13.19-9.04,3.82-4.21,6.46-9.21,7.63-14.46l4.23-19.01h31.17c4.18,0,8.36-.77,12.44-2.3,5.69-2.13,10.91-5.64,15.1-10.13,4.39-4.74,7.43-10.37,8.79-16.3l12.22-55.38.02-.09c.51-2.26.77-4.54.77-6.76.03-7.39-2.93-14.46-8.13-19.39ZM1402.62,75.82l.02-.08c.45-2.01.67-4.03.67-6.01.03-6.65-2.6-13.03-7.22-17.51-2.31-2.25-5.15-4.07-8.22-5.26-3.05-1.18-6.33-1.78-9.75-1.78h-72.22c-.69,0-1.38.02-2.07.07l2.52-11.43c.28-1.25.86-2.56,1.68-3.78,1.28-1.93,3.23-3.73,5.35-4.93,2.04-1.16,4.25-1.8,6.22-1.8h125.95c.93,0,1.75.13,2.42.39.93.36,1.31.77,1.57,1.14.27.4.58,1.02.59,2.21,0,.52-.07,1.08-.2,1.68l-12.24,55.46c-.28,1.25-.86,2.56-1.68,3.79-1.28,1.93-3.23,3.73-5.35,4.92-2.04,1.16-4.25,1.8-6.23,1.8h-26.01l4.2-18.88ZM1294.5,93.18c-.27-.4-.58-1.02-.59-2.21,0-.52.07-1.08.2-1.67l3.03-13.74c.2-.79.57-1.61,1.09-2.39.88-1.36,2.23-2.63,3.7-3.47,1.31-.76,2.75-1.2,3.93-1.2h72.22c.48,0,.87.06,1.13.16.25.1.28.14.31.17.05.08.18.28.19.9,0,.31-.04.66-.12,1.04l-5.33,23.95h-75.76c-.93,0-1.75-.13-2.42-.38-.93-.36-1.32-.78-1.57-1.14ZM1369.06,118.02l-3.12,14.01c-.18.83-.57,1.73-1.13,2.58-.88,1.37-2.23,2.63-3.7,3.48-1.32.77-2.78,1.21-3.97,1.2h-72.19c-.47,0-.86-.06-1.12-.16-.25-.1-.28-.14-.31-.18-.05-.08-.18-.28-.19-.89,0-.31.04-.65.12-1.01l4.63-20.79c3.26,1.17,6.76,1.76,10.41,1.76h70.57Z"/>
      <g>
        <path class="cls-5" d="M817.37,114.79c-6.95-19.42-18.84-34.49-35.66-45.21-16.83-10.72-37.84-16.07-63.06-16.07-23.73,0-45.1,4.86-64.1,14.57-19,9.71-34.37,23.34-46.11,40.89-11.74,17.55-18.53,38.18-20.37,61.89-1.68,21.7,2.13,40.96,11.44,57.77,9.3,16.81,22.97,30.01,40.99,39.58,18.02,9.58,39.34,14.37,63.97,14.37,23.14,0,44.89-5.49,65.25-16.48,18.26-9.85,32.59-23.26,42.99-40.23,1.9-3.09.35-6.79-3.23-7.74l-47.88-12.65c-2.68-.71-5.68.38-7.24,2.62-4.83,6.96-10.98,12.43-18.46,16.41-8.82,4.69-19.16,7.03-31.03,7.03-18.84,0-32.69-5.53-41.55-16.58-5.33-6.65-8.76-14.96-10.32-24.93-.54-3.46,2.6-6.72,6.51-6.72h101.6s30.71,0,30.71,0h23.45c3.23,0,6.1-2.27,6.53-5.19,3.54-24.09,2.06-45.2-4.43-63.33ZM756.49,142.72h-45.97s-45.97,0-45.97,0c-3.8,0-6.45-3.09-5.55-6.47,5.46-20.5,28.67-36.42,54.84-36.42s46.91,15.91,49.2,36.42c.38,3.38-2.75,6.47-6.55,6.47Z"/>
        <path class="cls-1" d="M113.05,282.57c-24.18,0-45.01-4.89-62.5-14.67-17.49-9.78-30.65-23.27-39.47-40.49C2.24,210.2-1.31,190.41.43,168.04c1.75-22.64,8.49-42.56,20.2-59.78,11.71-17.21,27.07-30.64,46.06-40.29,18.99-9.64,40.35-14.47,64.09-14.47s45.05,4.89,62.61,14.67c17.56,9.78,30.79,23.28,39.7,40.49,8.9,17.21,12.49,37.01,10.76,59.38-1.74,22.5-8.44,42.37-20.08,59.58-11.64,17.21-27,30.68-46.07,40.39-19.07,9.71-40.62,14.57-64.65,14.57ZM117,231.54c19.43,0,34.39-5.93,44.88-17.78,10.49-11.86,16.45-27.09,17.89-45.71,1.49-19.29-2.17-34.69-10.99-46.21-8.83-11.52-22.8-17.28-41.94-17.28-13.2,0-24.24,2.68-33.11,8.04-8.87,5.36-15.71,12.79-20.53,22.3-4.82,9.51-7.71,20.56-8.69,33.15-1.5,19.42,2.16,34.86,10.99,46.32,8.83,11.45,22.66,17.18,41.5,17.18Z"/>
        <path class="cls-4" d="M307.9,272.67l-53.7-206.28c-.93-3.57,2.33-7.18,6.46-7.15l46.31.31c2.68.02,4.91,1.61,5.51,3.92l28.1,108.24c1.36,5.22,9.53,5.24,11.72.02l45.42-108.25c.97-2.32,3.47-3.9,6.16-3.9h41.24c2.69,0,4.94,1.58,5.56,3.9l28.66,108.25c1.38,5.21,9.56,5.2,11.72-.02l44.85-108.21c.97-2.33,3.47-3.92,6.17-3.92h46.36c4.12,0,6.79,3.6,5.31,7.15l-85.63,205.94c-.97,2.33-3.47,3.92-6.17,3.92h-37.33c-2.63,0-4.86-1.52-5.52-3.78l-35.85-122.02c-1.48-5.04-9.37-5.04-11.63,0l-54.75,122.02c-1.01,2.26-3.47,3.78-6.11,3.78h-37.33c-2.7,0-4.95-1.59-5.56-3.92Z"/>
        <path class="cls-3" d="M1057.49,108.57c.24-3.05,3.16-5.53,6.55-5.54,10.47-.01,28.98-.05,35.72-.05,13.2,0,23.24,3.99,30.11,11.96,6.87,7.97,9.76,19.12,8.65,33.46l-9.5,122.66c-.24,3.06,2.32,5.54,5.7,5.54h48.26c3.39,0,6.32-2.48,6.56-5.54l10.62-137.13c1.84-23.71-3.69-42.9-16.57-57.57-12.88-14.67-32.72-16.78-60.16-16.78-16.02,0-43.7,0-43.7,0h-54.13s-25.77,0-44.61,0h-119.17c-3.39,0-6.32,2.48-6.56,5.54l-15.95,205.94c-.24,3.06,2.32,5.54,5.7,5.54h48.71c3.39,0,6.32-2.48,6.56-5.54l9.75-125.87c.71-9.11,2.08-27.32,2.77-36.46.23-3.04,3.13-5.51,6.5-5.54,9.27-.07,26.82-.2,35.83-.2,13.2,0,23.24,3.99,30.11,11.96,6.87,7.97,9.76,19.12,8.65,33.46l-9.5,122.66c-.24,3.06,2.32,5.54,5.7,5.54h48.26c3.39,0,6.32-2.48,6.56-5.54l9.75-125.87,2.83-36.61Z"/>
      </g>
    </g>
  </g>
</svg>